<?xml version="1.0" standalone="no"?><!DOCTYPE svg PUBLIC "-//W3C//DTD SVG 1.1//EN" "http://www.w3.org/Graphics/SVG/1.1/DTD/svg11.dtd"><svg t="1747227509216" class="icon" viewBox="0 0 1024 1024" version="1.1" xmlns="http://www.w3.org/2000/svg" p-id="3780" xmlns:xlink="http://www.w3.org/1999/xlink" width="64" height="64"><path d="M126.976 548.864h73.728v184.32c0 53.248 40.96 94.208 94.208 94.208H491.52V901.12c0 61.44 53.248 122.88 126.976 122.88s114.688-53.248 114.688-122.88v-73.728h196.608c53.248 0 94.208-40.96 94.208-94.208v-184.32h-73.728c-73.728 0-135.168-61.44-135.168-135.168s61.44-135.168 135.168-135.168H1024V94.208C1024 40.96 983.04 0 929.792 0h-188.416v73.728c0 73.728-61.44 135.168-135.168 135.168-73.728 0-135.168-61.44-135.168-135.168V0H290.816C241.664 0 196.608 40.96 196.608 94.208v208.896H126.976c-61.44 0-126.976 53.248-126.976 122.88s61.44 122.88 126.976 122.88z" fill="#F15A4A" p-id="3781"></path></svg>