<?xml version="1.0" standalone="no"?><!DOCTYPE svg PUBLIC "-//W3C//DTD SVG 1.1//EN" "http://www.w3.org/Graphics/SVG/1.1/DTD/svg11.dtd"><svg t="1747752993637" class="icon" viewBox="0 0 1024 1024" version="1.1" xmlns="http://www.w3.org/2000/svg" p-id="2649" width="64" height="64" xmlns:xlink="http://www.w3.org/1999/xlink"><path d="M471.04 271.36l46.08-25.6 40.96 25.6 5.12-46.08 135.68-76.8V102.4l-179.2-102.4-184.32 102.4v46.08l138.24 76.8v46.08z m-197.12 256v-148.48l138.24-76.8V256l-179.2-97.28L48.64 256l-5.12 199.68 184.32 97.28 46.08-25.6z m0 112.64v-46.08l-46.08 25.6-138.24-76.8-40.96 20.48-5.12 199.68 184.32 97.28 46.08-20.48v-153.6l46.08-20.48-46.08-25.6z m704-384L793.6 158.72 614.4 256v46.08l138.24 76.8v153.6l40.96 20.48 184.32-97.28V256z m-43.52 284.16l-138.24 76.8-40.96-25.6v46.08l-46.08 20.48 46.08 25.6v153.6l40.96 20.48 184.32-97.28V563.2l-46.08-23.04z m-279.04 153.6l-143.36 76.8-138.24-76.8-40.96 25.6v194.56l179.2 102.4 184.32-102.4V716.8l-40.96-23.04z m38.4-84.48V409.6l-179.2-97.28-184.32 97.28v199.68l179.2 97.28 184.32-97.28z" fill="#6C62EC" p-id="2650"></path></svg>