<?xml version="1.0" standalone="no"?><!DOCTYPE svg PUBLIC "-//W3C//DTD SVG 1.1//EN" "http://www.w3.org/Graphics/SVG/1.1/DTD/svg11.dtd"><svg t="1747304890669" class="icon" viewBox="0 0 1024 1024" version="1.1" xmlns="http://www.w3.org/2000/svg" p-id="10118" xmlns:xlink="http://www.w3.org/1999/xlink" width="64" height="64"><path d="M694.784 373.248c3.584-2.048 8.704-1.024 10.752 3.072l24.064 41.472c2.048 3.584 1.024 8.704-3.072 10.752l-182.784 105.472v209.92c0 4.608-3.584 8.192-8.192 8.192h-48.128c-4.608 0-8.192-3.584-8.192-8.192v-207.36L292.864 428.544c-3.584-2.048-5.12-7.168-3.072-10.752l24.064-41.472c2.048-3.584 7.168-5.12 10.752-3.072l184.832 107.008 185.344-107.008z" fill="#44D7B6" p-id="10119"></path><path d="M158.208 297.984l26.624-15.36 294.912-170.496 24.576-14.336c5.12-3.072 11.264-3.072 15.872 0l29.184 16.896 281.088 162.304 35.84 20.992c5.12 3.072 8.192 8.192 8.192 13.824V711.68c0 5.632-3.072 10.752-8.192 13.824l-32.256 18.432-287.232 165.888-26.624 15.36c-5.12 3.072-11.264 3.072-15.872 0l-22.016-12.8L186.88 742.4l-28.672-16.896c-5.12-3.072-8.192-8.192-8.192-13.824V311.808c0-5.632 3.072-10.752 8.192-13.824z m643.584 46.592L512 177.664 222.208 344.576v334.336l289.792 167.424 289.792-167.424V344.576z" fill="#1C6EFF" p-id="10120"></path></svg>