<?xml version="1.0" standalone="no"?><!DOCTYPE svg PUBLIC "-//W3C//DTD SVG 1.1//EN" "http://www.w3.org/Graphics/SVG/1.1/DTD/svg11.dtd"><svg t="1747229422959" class="icon" viewBox="0 0 1024 1024" version="1.1" xmlns="http://www.w3.org/2000/svg" p-id="26140" xmlns:xlink="http://www.w3.org/1999/xlink" width="64" height="64"><path d="M736 463.9744h-448a176.0256 176.0256 0 0 1 0-352h448a176.0256 176.0256 0 0 1 0 352" fill="#1BC185" p-id="26141"></path><path d="M736 911.9744h-448a176.0256 176.0256 0 0 1 0-352h448a176.0256 176.0256 0 0 1 0 352" fill="#90E8BF" p-id="26142"></path><path d="M431.9744 736a144.0256 144.0256 0 1 1-143.9744-144.0256 144.0256 144.0256 0 0 1 144.0256 144.0256" fill="#FFFFFF" p-id="26143"></path><path d="M879.9744 288a144.0256 144.0256 0 1 1-143.9744-144.0256 144.0256 144.0256 0 0 1 144.0256 144.0256" fill="#FFFFFF" p-id="26144"></path></svg>